<svg width="35" height="34" viewBox="0 0 35 34" fill="none" xmlns="http://www.w3.org/2000/svg">
<rect x="29.8102" y="4.01729" width="25" height="25" rx="8" transform="rotate(90.8697 29.8102 4.01729)" fill="#AEC32B"/>
<rect x="31.4732" y="7.2691" width="25.2322" height="23.6872" rx="8" transform="rotate(103.284 31.4732 7.2691)" fill="#D2E460"/>
<rect x="34.095" y="19.7958" width="25.2322" height="23.6872" rx="8" transform="rotate(146.691 34.095 19.7958)" fill="#AEC32B"/>
<path d="M12.3623 23.6543C12.2165 23.9049 12.057 24.0872 11.8838 24.2012C11.7106 24.3197 11.5055 24.3789 11.2686 24.3789C11.027 24.3789 10.9062 24.2969 10.9062 24.1328C10.9062 23.9961 10.9609 23.8434 11.0703 23.6748L11.6104 22.752L17.5029 12.1836L18.166 11.0352C18.3529 10.7116 18.5078 10.4495 18.6309 10.249C18.9316 9.77507 19.3053 9.53809 19.752 9.53809C19.9707 9.53809 20.0801 9.62695 20.0801 9.80469C20.0801 10.028 19.9092 10.3994 19.5674 10.9189C19.4899 11.0374 19.3714 11.2311 19.2119 11.5C14.7959 19.3568 12.5127 23.4082 12.3623 23.6543ZM19.0068 21.3984C18.8063 21.3984 18.7061 21.2663 18.7061 21.002C18.7061 20.7103 18.8314 20.4915 19.082 20.3457L23.833 17.5771L18.9521 14.7402C18.7926 14.6491 18.7129 14.5557 18.7129 14.46C18.7129 14.3597 18.7288 14.2822 18.7607 14.2275C18.7926 14.1683 18.8359 14.1159 18.8906 14.0703C19 13.9792 19.1276 13.9336 19.2734 13.9336C19.4193 13.9336 19.5469 13.9655 19.6562 14.0293L25.1729 17.0713C25.542 17.29 25.7266 17.4609 25.7266 17.584C25.7266 17.707 25.5876 17.8415 25.3096 17.9873L19.2461 21.3301C19.1595 21.3757 19.0798 21.3984 19.0068 21.3984Z" fill="#D2E460"/>
</svg>
